g pyramid

# ===========================
# VERTICES
# ===========================

# base (square, y = 0)
v -0.5 0 -0.5  0.2 0.2 0.2
v  0.5 0 -0.5  0.2 0.2 0.2
v  0.5 0  0.5  0.2 0.2 0.2
v -0.5 0  0.5  0.2 0.2 0.2

# apex (top)
v 0 1 0  0.2 0.2 0.2

# For face separation, we duplicate apex and base edges
# Front
v -0.5 0  0.5  0.2 0.2 0.2
v  0.5 0  0.5  0.2 0.2 0.2
v 0 1 0     0.2 0.2 0.2

# Right
v 0.5 0 0.5   0.2 0.2 0.2
v 0.5 0 -0.5  0.2 0.2 0.2
v 0 1 0       0.2 0.2 0.2

# Back
v 0.5 0 -0.5  0.2 0.2 0.2
v -0.5 0 -0.5 0.2 0.2 0.2
v 0 1 0       0.2 0.2 0.2

# Left
v -0.5 0 -0.5 0.2 0.2 0.2
v -0.5 0  0.5 0.2 0.2 0.2
v 0 1 0       0.2 0.2 0.2

# ===========================
# UV
# ===========================
vt 0 0
vt 1 0
vt 1 1
vt 0 1
vt 0.5 1.0
vt 0.5 0.0

# ===========================
# NORMALS
# ===========================
vn 0 -1 0
vn 0 0 1
vn 1 0 0
vn 0 0 -1
vn -1 0 0

# ===========================
# FACES
# ===========================

# Base (normal 1)
f 1/1/1 2/2/1 3/3/1
f 1/1/1 3/3/1 4/4/1

# Front (normal 2)
f 6/1/2 7/2/2 8/5/2

# Right (normal 3)
f 9/1/3 10/2/3 11/5/3

# Back (normal 4)
f 12/1/4 13/2/4 14/5/4

# Left (normal 5)
f 15/1/5 16/2/5 17/5/5